<svg width="185" height="50" viewBox="0 0 185 50" fill="none" xmlns="http://www.w3.org/2000/svg">
<g clip-path="url(#clip0_31_2025)">
<mask id="mask0_31_2025" style="mask-type:luminance" maskUnits="userSpaceOnUse" x="0" y="0" width="185" height="50">
<path d="M184.343 -1.52588e-05H0V50H184.343V-1.52588e-05Z" fill="white"/>
</mask>
<g mask="url(#mask0_31_2025)">
<path d="M180.217 36.3013H184.322V40.4109H180.217V36.3013Z" fill="#FF8030"/>
<path d="M65.5649 40.0965C65.1557 40.1067 64.7489 40.0325 64.3697 39.8787C64.0487 39.7445 63.7777 39.5134 63.5946 39.2178C63.4024 38.8853 63.3074 38.5056 63.3205 38.1219C63.3205 38.0657 63.3205 38.0168 63.3205 37.9753C63.3205 37.9337 63.3205 37.8863 63.3205 37.8328H64.2868C64.2868 37.8831 64.2868 37.9269 64.2868 37.9643C64.2868 38.0018 64.2868 38.0474 64.2868 38.1013C64.2723 38.2645 64.2938 38.4288 64.35 38.5827C64.4061 38.7366 64.4954 38.8762 64.6116 38.9917C64.883 39.1978 65.2201 39.2984 65.5601 39.2746C65.8973 39.2949 66.2334 39.2196 66.5297 39.0575C66.6426 38.9813 66.7331 38.8766 66.7921 38.7539C66.8511 38.6313 66.8765 38.4952 66.8655 38.3595C66.8721 38.1485 66.7987 37.9428 66.66 37.7835C66.4995 37.6117 66.3054 37.4746 66.0898 37.3808C65.8189 37.2571 65.5401 37.1516 65.2551 37.065C64.9198 36.9644 64.5977 36.8242 64.2957 36.6472C64.0231 36.4884 63.7907 36.2691 63.6166 36.0061C63.4414 35.7234 63.3539 35.3953 63.3651 35.063C63.3544 34.7316 63.4505 34.4055 63.6392 34.1328C63.8335 33.8698 64.0995 33.6681 64.4053 33.552C64.7637 33.4141 65.1453 33.3469 65.5292 33.3541C65.93 33.345 66.3286 33.4148 66.7024 33.5595C67.0193 33.6833 67.2912 33.9001 67.4823 34.1815C67.6792 34.4956 67.7771 34.8617 67.7633 35.2321V35.5438H66.7895C66.7895 35.4936 66.7895 35.4479 66.7895 35.4068C66.7895 35.3657 66.7895 35.3212 66.7895 35.2732C66.8039 35.1191 66.7832 34.9637 66.7288 34.8187C66.6744 34.6737 66.5879 34.5429 66.4756 34.4363C66.2052 34.2456 65.8771 34.1544 65.547 34.178C65.2269 34.159 64.9079 34.2315 64.6274 34.3869C64.5186 34.4612 64.4314 34.563 64.3747 34.6818C64.3181 34.8007 64.2939 34.9324 64.3046 35.0636C64.2971 35.2757 64.3706 35.4826 64.5102 35.6424C64.6707 35.8125 64.8649 35.9473 65.0804 36.0383C65.35 36.159 65.6257 36.2659 65.9061 36.3589C66.2576 36.4717 66.5969 36.6192 66.919 36.7993C67.1845 36.9456 67.4099 37.155 67.5755 37.4089C67.7392 37.6875 67.8196 38.0072 67.8071 38.3301C67.8181 38.6705 67.7222 39.0058 67.533 39.289C67.3378 39.5617 67.0669 39.7712 66.7538 39.8917C66.3747 40.0368 65.9708 40.1064 65.5649 40.0965ZM71.1486 40.0924C70.6987 40.1017 70.2542 39.9928 69.8596 39.7767C69.4941 39.573 69.1922 39.2721 68.9872 38.9075C68.7731 38.5187 68.6649 38.0806 68.6733 37.6369C68.6644 37.1954 68.7727 36.7594 68.9872 36.3732C69.1922 36.011 69.4947 35.7135 69.8603 35.5143C70.2564 35.3038 70.7001 35.1986 71.1486 35.2089C71.5978 35.1998 72.0417 35.3064 72.4376 35.5184C72.8039 35.716 73.1076 36.0121 73.3141 36.3732C73.5282 36.7588 73.6365 37.194 73.628 37.6349C73.6368 38.0793 73.5286 38.5181 73.3141 38.9075C73.1091 39.2725 72.8069 39.5736 72.4411 39.7773C72.0453 39.9938 71.5996 40.1025 71.1486 40.0924ZM71.1486 39.2643C71.4233 39.2703 71.6944 39.2012 71.9326 39.0643C72.1595 38.9294 72.3432 38.7327 72.4623 38.4972C72.595 38.23 72.6606 37.9345 72.6535 37.6363C72.6612 37.3408 72.5955 37.0481 72.4623 36.7842C72.3424 36.5521 72.1586 36.3592 71.9326 36.228C71.6936 36.0935 71.4229 36.0254 71.1486 36.0308C70.8754 36.0256 70.6058 36.0932 70.3674 36.2267C70.1404 36.3572 69.9558 36.5503 69.8356 36.7828C69.7027 37.0461 69.637 37.3381 69.6444 37.6328C69.6368 37.932 69.7025 38.2285 69.8356 38.4965C69.955 38.7324 70.1396 38.9292 70.3674 39.0636C70.6048 39.2 70.8748 39.2694 71.1486 39.2643ZM75.7175 33.0472V40.0034H74.7649V33.0472H75.7175ZM78.6478 40.0965C78.3272 40.1033 78.0084 40.0461 77.7103 39.928C77.4591 39.8295 77.2415 39.6609 77.0832 39.4424C76.9308 39.2185 76.8528 38.9522 76.8605 38.6815C76.8496 38.3976 76.9386 38.1189 77.112 37.8938C77.2967 37.6741 77.5365 37.5075 77.8069 37.4109C78.1313 37.2902 78.4707 37.2146 78.8157 37.1863C79.214 37.1535 79.6103 37.0986 80.0026 37.0219C80.231 36.9684 80.3452 36.881 80.3452 36.7595V36.75C80.3494 36.6392 80.3229 36.5295 80.2688 36.4329C80.2146 36.3362 80.1348 36.2563 80.0382 36.202C79.7679 36.0622 79.4649 35.9977 79.161 36.015C78.8377 35.9962 78.5157 36.0696 78.2325 36.2267C78.1234 36.2993 78.0355 36.3996 77.978 36.5173C77.9204 36.635 77.8952 36.7659 77.9049 36.8965H76.9599C76.95 36.5667 77.0495 36.2428 77.2429 35.9753C77.4441 35.7138 77.7148 35.5142 78.0241 35.3993C78.3896 35.2614 78.778 35.1943 79.1686 35.2013C79.5364 35.1967 79.9022 35.2577 80.2486 35.3815C80.5516 35.4862 80.8203 35.6717 81.0257 35.9178C81.2235 36.1697 81.3259 36.4833 81.3149 36.8034C81.3149 36.8655 81.3149 36.9271 81.3149 36.9883C81.3149 37.0495 81.3149 37.1111 81.3149 37.1732V39.0602C81.3149 39.1698 81.3193 39.276 81.3279 39.3787C81.3349 39.4714 81.3512 39.5632 81.3766 39.6527C81.3981 39.7323 81.4304 39.8085 81.4725 39.8794C81.4988 39.9238 81.5296 39.9653 81.5644 40.0034H80.605C80.575 39.9683 80.5488 39.9302 80.5268 39.8897C80.4896 39.8244 80.4591 39.7556 80.4357 39.6842C80.4061 39.6023 80.385 39.5176 80.3726 39.4315C80.3588 39.3275 80.3522 39.2227 80.3528 39.1178L80.5309 39.2424C80.4348 39.4224 80.2965 39.5766 80.128 39.6917C79.9314 39.8272 79.7131 39.9279 79.4824 39.9897C79.2105 40.0636 78.9296 40.0996 78.6478 40.0965ZM78.8479 39.2952C79.1051 39.2982 79.3607 39.2537 79.6017 39.1636C79.8187 39.0847 80.0089 38.9458 80.1499 38.763C80.2923 38.566 80.3647 38.327 80.3555 38.0842V37.302L80.5823 37.6C80.3567 37.6834 80.1232 37.7438 79.8854 37.7801C79.6113 37.8257 79.3285 37.8636 79.037 37.8938C78.7258 37.9073 78.4195 37.9769 78.1331 38.0993C78.0374 38.1442 77.9574 38.2167 77.9034 38.3076C77.8494 38.3984 77.8239 38.5034 77.8302 38.6089C77.8242 38.7089 77.8442 38.8088 77.8883 38.8988C77.9324 38.9888 77.999 39.0659 78.0817 39.1226C78.3149 39.2534 78.5811 39.3136 78.8479 39.2958V39.2952ZM82.4902 40.0034V35.2773H83.4564V36.7842L83.1981 36.6684C83.2181 36.4779 83.2676 36.2917 83.3447 36.1164C83.4206 35.9433 83.5253 35.7844 83.6545 35.6465C83.7893 35.5046 83.9529 35.393 84.1342 35.3191C84.3437 35.2355 84.5679 35.1947 84.7935 35.1993C84.9484 35.1956 85.1033 35.2106 85.2547 35.2438C85.3291 35.2577 85.4016 35.2807 85.4705 35.3123L85.2649 36.2205C85.208 36.1872 85.1476 36.1603 85.0847 36.1404C84.9629 36.1034 84.8357 36.087 84.7085 36.0917C84.499 36.0841 84.2909 36.1283 84.1027 36.2205C83.9485 36.301 83.8168 36.4187 83.7196 36.563C83.6239 36.7045 83.5542 36.862 83.514 37.028C83.4747 37.195 83.4554 37.3661 83.4564 37.5376V40.0034H82.4902ZM90.4519 40.0924C90.0576 40.0989 89.6656 40.031 89.2965 39.8924C88.9791 39.7754 88.7002 39.573 88.4906 39.3075C88.2898 39.0405 88.1854 38.7133 88.1946 38.3794C88.189 38.0805 88.2743 37.787 88.4392 37.5376C88.6298 37.2652 88.8672 37.0287 89.1403 36.839C89.4892 36.5892 89.8529 36.3605 90.2292 36.1541C90.5608 35.9846 90.8595 35.7573 91.1112 35.4828C91.2908 35.2815 91.3919 35.0224 91.3962 34.7527C91.4019 34.6079 91.364 34.4647 91.2873 34.3417C91.217 34.2356 91.1182 34.1516 91.0022 34.0993C90.8825 34.0453 90.7525 34.018 90.6212 34.0191C90.4889 34.0195 90.358 34.0461 90.236 34.0972C90.113 34.1468 90.0066 34.2301 89.929 34.3376C89.8469 34.4585 89.8056 34.6025 89.8112 34.7486C89.8164 34.9833 89.8848 35.2124 90.0092 35.4116C90.1709 35.6798 90.3501 35.9369 90.5458 36.1815L92.8525 39.052C92.9297 39.1603 93.0301 39.2499 93.1465 39.3143C93.2144 39.3482 93.2886 39.3678 93.3644 39.3719C93.4202 39.3716 93.4758 39.3654 93.5302 39.3534C93.5698 39.3469 93.6083 39.3352 93.6447 39.3184V39.9993C93.6025 40.0144 93.5595 40.027 93.5158 40.0369C93.4224 40.0583 93.3266 40.0679 93.2308 40.0657C93.0834 40.0627 92.9384 40.0286 92.8052 39.9657C92.6409 39.8875 92.4969 39.7724 92.3844 39.6294L89.9359 36.6075C89.7874 36.4207 89.6412 36.2264 89.4973 36.0246C89.3559 35.8274 89.2364 35.6155 89.1409 35.3924C89.0488 35.1742 89.0022 34.9395 89.0039 34.7027C89.0007 34.4572 89.0764 34.2171 89.2197 34.0178C89.369 33.813 89.5694 33.651 89.8009 33.5479C90.0568 33.4326 90.335 33.3749 90.6157 33.3787C90.8941 33.3731 91.1703 33.4302 91.4236 33.5458C91.6453 33.6482 91.8348 33.809 91.9719 34.0109C92.1075 34.2168 92.1773 34.459 92.172 34.7054C92.1755 34.9759 92.1112 35.2429 91.9849 35.4821C91.8487 35.7294 91.6685 35.9497 91.4531 36.1321C91.196 36.3511 90.9178 36.5441 90.6225 36.7082C90.2186 36.9294 89.8381 37.191 89.487 37.489C89.3623 37.5921 89.2618 37.7212 89.1925 37.8674C89.1232 38.0136 89.0869 38.1732 89.0861 38.3349C89.0834 38.5345 89.1486 38.7292 89.2711 38.8869C89.4018 39.0527 89.5729 39.1822 89.768 39.263C89.9861 39.3559 90.221 39.4025 90.4581 39.4C90.8117 39.4111 91.164 39.3505 91.4935 39.2219C91.7538 39.1129 91.9892 38.9524 92.1857 38.75C92.3932 38.5277 92.5524 38.2649 92.6531 37.978C92.761 37.6599 92.8134 37.3256 92.8079 36.9897H93.6049C93.6084 37.3035 93.5694 37.6164 93.4891 37.9198C93.4181 38.1833 93.3133 38.4366 93.1773 38.6732C93.0521 38.89 92.8994 39.0896 92.723 39.2671C92.4594 39.5243 92.1466 39.7256 91.8033 39.8589C91.3723 40.0238 90.9133 40.1031 90.4519 40.0924ZM97.0602 40.0034V33.439H99.4649C99.981 33.4013 100.493 33.5584 100.898 33.8794C101.069 34.0522 101.201 34.2596 101.285 34.4877C101.368 34.7158 101.402 34.9591 101.384 35.2013C101.393 35.5071 101.325 35.8102 101.186 36.0828C101.071 36.3048 100.907 36.4975 100.706 36.6458C100.554 36.764 100.374 36.8413 100.183 36.8705C100.352 36.8831 100.517 36.9284 100.668 37.0041C100.829 37.0844 100.965 37.2077 101.06 37.3602C101.174 37.5574 101.228 37.7831 101.216 38.0102V39.4212C101.215 39.543 101.226 39.6646 101.249 39.7842C101.26 39.863 101.288 39.9384 101.332 40.0047H100.36C100.326 39.9346 100.302 39.8595 100.291 39.7821C100.269 39.6633 100.259 39.5427 100.26 39.4219V38.1253C100.269 38.0074 100.251 37.8891 100.208 37.7793C100.164 37.6694 100.096 37.5709 100.009 37.491C99.7974 37.3363 99.5379 37.2613 99.2764 37.2794H97.7414L98.0038 36.9369V40.0034H97.0602ZM98.0045 36.8568L97.742 36.4787H99.2826C99.4798 36.4815 99.6741 36.4299 99.8438 36.3294C100.012 36.2281 100.15 36.0836 100.243 35.9109C100.346 35.7173 100.397 35.5006 100.392 35.2815C100.405 35.1355 100.385 34.9884 100.333 34.8512C100.282 34.714 100.2 34.5902 100.094 34.489C99.8471 34.308 99.5443 34.2197 99.2387 34.2397H97.7194L98.0045 33.8705V36.8568ZM102.832 37.978V37.2246H106.314L106.18 37.4472V37.3404C106.182 37.1094 106.129 36.8813 106.024 36.6753C105.92 36.4708 105.758 36.3009 105.559 36.1856C105.323 36.055 105.056 35.9911 104.787 36.0006C104.503 35.9943 104.223 36.0626 103.974 36.1986C103.742 36.3291 103.554 36.5239 103.431 36.7595C103.295 37.029 103.228 37.3279 103.237 37.6294C103.228 37.9368 103.292 38.2418 103.424 38.5198C103.542 38.7603 103.729 38.9597 103.962 39.0917C104.221 39.231 104.511 39.2999 104.804 39.2917C105.004 39.2953 105.204 39.2723 105.398 39.2232C105.545 39.1859 105.684 39.1233 105.809 39.0383C105.908 38.9717 105.992 38.8862 106.057 38.7869C106.11 38.706 106.143 38.6138 106.155 38.5178H107.114C107.093 38.7199 107.029 38.915 106.925 39.0897C106.807 39.2886 106.651 39.4625 106.466 39.6013C106.249 39.7643 106.005 39.8879 105.745 39.9664C105.428 40.0621 105.098 40.1083 104.768 40.1034C104.316 40.1134 103.869 40.006 103.472 39.7917C103.107 39.5902 102.806 39.2902 102.603 38.926C102.391 38.5368 102.283 38.0989 102.292 37.6554C102.283 37.2071 102.394 36.7647 102.613 36.3732C102.819 36.01 103.123 35.7117 103.49 35.5123C103.886 35.3007 104.329 35.1941 104.777 35.2027C105.224 35.1913 105.666 35.2989 106.057 35.5143C106.412 35.7153 106.702 36.0133 106.893 36.3732C107.095 36.762 107.196 37.195 107.187 37.6328C107.187 37.689 107.186 37.7543 107.183 37.8287C107.182 37.8794 107.178 37.93 107.17 37.9801L102.832 37.978ZM111.626 40.0034V37.2486C111.63 37.0397 111.594 36.8321 111.519 36.6369C111.45 36.465 111.327 36.3206 111.168 36.226C110.967 36.1175 110.741 36.0659 110.513 36.0767C110.283 36.0738 110.057 36.1355 109.861 36.2547C109.667 36.3726 109.507 36.5391 109.397 36.7376C109.281 36.9494 109.222 37.1878 109.226 37.4294L108.815 37.2239C108.811 36.8629 108.906 36.5075 109.089 36.1965C109.266 35.897 109.516 35.6479 109.817 35.4732C110.12 35.2955 110.465 35.2032 110.817 35.2061C111.15 35.1966 111.479 35.2708 111.776 35.4219C112.037 35.5612 112.25 35.7761 112.386 36.0383C112.534 36.3327 112.606 36.659 112.598 36.9883V40.0034H111.626ZM108.259 40.0034V35.2773H109.223V40.0034H108.259ZM114.153 37.978V37.2246H117.635L117.501 37.4472V37.3404C117.503 37.1094 117.45 36.8813 117.345 36.6753C117.241 36.4708 117.079 36.3009 116.88 36.1856C116.644 36.055 116.377 35.9911 116.108 36.0006C115.824 35.9943 115.544 36.0626 115.295 36.1986C115.063 36.3291 114.875 36.5239 114.752 36.7595C114.616 37.029 114.549 37.3279 114.558 37.6294C114.549 37.9368 114.613 38.2418 114.745 38.5198C114.863 38.7603 115.05 38.9597 115.283 39.0917C115.542 39.231 115.832 39.2999 116.125 39.2917C116.325 39.2953 116.525 39.2723 116.719 39.2232C116.866 39.1859 117.005 39.1233 117.13 39.0383C117.229 38.9717 117.313 38.8862 117.378 38.7869C117.431 38.706 117.464 38.6138 117.476 38.5178H118.435C118.414 38.7199 118.35 38.915 118.246 39.0897C118.128 39.2886 117.972 39.4625 117.788 39.6013C117.57 39.7643 117.326 39.8879 117.066 39.9664C116.749 40.0621 116.42 40.1083 116.089 40.1034C115.637 40.1134 115.19 40.006 114.793 39.7917C114.428 39.5902 114.127 39.2902 113.925 38.926C113.712 38.5368 113.604 38.0989 113.613 37.6554C113.605 37.2069 113.717 36.7644 113.937 36.3732C114.143 36.01 114.447 35.7117 114.814 35.5123C115.209 35.3007 115.653 35.1941 116.101 35.2027C116.548 35.1913 116.99 35.2989 117.381 35.5143C117.735 35.7155 118.025 36.0135 118.216 36.3732C118.417 36.762 118.519 37.195 118.51 37.6328C118.51 37.689 118.508 37.7543 118.505 37.8287C118.504 37.8794 118.5 37.93 118.492 37.9801L114.153 37.978ZM123.272 40.0034L122.063 35.2773H122.847L124.012 39.652H123.848L124.601 35.2773H125.602L124.606 40.0034H123.272ZM120.046 40.0034L119.044 35.2773H120.046L120.812 39.652H120.643L121.796 35.2773H122.58L121.387 40.0034H120.046ZM128.022 40.0965C127.701 40.1033 127.382 40.0461 127.084 39.928C126.834 39.8294 126.616 39.6611 126.458 39.4431C126.306 39.2192 126.228 38.9529 126.236 38.6821C126.225 38.3983 126.314 38.1195 126.487 37.8945C126.672 37.6748 126.912 37.5081 127.182 37.4116C127.507 37.2908 127.846 37.2152 128.191 37.1869C128.589 37.1542 128.986 37.0993 129.378 37.0226C129.606 36.9691 129.72 36.8817 129.72 36.7602V36.75C129.725 36.6392 129.698 36.5295 129.644 36.4329C129.59 36.3362 129.51 36.2563 129.413 36.202C129.143 36.0622 128.84 35.9977 128.536 36.015C128.213 35.9962 127.891 36.0696 127.608 36.2267C127.499 36.2993 127.411 36.3996 127.353 36.5173C127.296 36.635 127.27 36.7659 127.28 36.8965H126.334C126.324 36.5667 126.423 36.2428 126.617 35.9753C126.818 35.7138 127.089 35.5142 127.398 35.3993C127.764 35.2614 128.152 35.1943 128.542 35.2013C128.91 35.1967 129.276 35.2577 129.622 35.3815C129.926 35.4862 130.194 35.6717 130.4 35.9178C130.597 36.1697 130.7 36.4833 130.689 36.8034V39.0595C130.689 39.1691 130.693 39.2753 130.702 39.378C130.709 39.4708 130.725 39.5625 130.75 39.652C130.772 39.7316 130.804 39.8079 130.846 39.8787C130.873 39.9233 130.903 39.9651 130.938 40.0034H129.979C129.949 39.9683 129.923 39.9302 129.901 39.8897C129.864 39.8244 129.833 39.7556 129.81 39.6842C129.781 39.6011 129.76 39.5153 129.749 39.428C129.735 39.324 129.729 39.2192 129.729 39.1143L129.908 39.239C129.811 39.419 129.673 39.5731 129.505 39.6883C129.308 39.8237 129.09 39.9245 128.859 39.9863C128.586 40.0616 128.305 40.0987 128.022 40.0965ZM128.222 39.2952C128.479 39.2982 128.735 39.2537 128.976 39.1636C129.193 39.0847 129.383 38.9458 129.524 38.763C129.666 38.566 129.739 38.327 129.729 38.0842V37.302L129.956 37.6C129.731 37.6834 129.497 37.7438 129.259 37.7801C128.985 37.8257 128.702 37.8636 128.411 37.8938C128.1 37.9073 127.793 37.9769 127.507 38.0993C127.411 38.1442 127.331 38.2167 127.277 38.3076C127.223 38.3984 127.198 38.5034 127.204 38.6089C127.198 38.7089 127.218 38.8088 127.262 38.8988C127.306 38.9888 127.373 39.0659 127.456 39.1226C127.689 39.2534 127.955 39.3136 128.222 39.2958V39.2952ZM134.353 40.0965C133.993 40.0986 133.639 40.0024 133.329 39.8184C133.014 39.6327 132.752 39.3702 132.566 39.0554C132.369 38.724 132.268 38.3447 132.274 37.9595V37.9061L132.835 37.8931V37.9376C132.832 38.1702 132.898 38.3985 133.024 38.5938C133.148 38.7857 133.317 38.9441 133.516 39.0547C133.715 39.1666 133.939 39.2249 134.167 39.2239C134.345 39.228 134.522 39.1955 134.687 39.1285C134.852 39.0615 135.001 38.9613 135.126 38.8342C135.267 38.6701 135.374 38.4795 135.441 38.2736C135.508 38.0678 135.534 37.8506 135.516 37.6349C135.534 37.4193 135.51 37.2022 135.443 36.9963C135.377 36.7904 135.27 36.5998 135.129 36.4356C135.003 36.3097 134.854 36.2107 134.689 36.1445C134.524 36.0783 134.347 36.0464 134.169 36.0506C133.942 36.0496 133.718 36.1072 133.519 36.2178C133.32 36.3263 133.151 36.4823 133.027 36.6719C132.9 36.8668 132.834 37.0953 132.838 37.328L132.277 37.3061C132.269 36.9206 132.37 36.5407 132.569 36.2102C132.755 35.9018 133.018 35.6466 133.332 35.4691C133.644 35.2918 133.997 35.1997 134.356 35.202C134.729 35.1996 135.097 35.2973 135.42 35.4849C135.755 35.6817 136.028 35.9674 136.21 36.3102C136.422 36.718 136.525 37.1731 136.511 37.6321C136.526 38.099 136.425 38.5622 136.217 38.9808C136.041 39.3279 135.769 39.6173 135.433 39.815C135.105 40.0037 134.732 40.1009 134.353 40.0965ZM131.864 40.0034V33.0472H132.835V40.0034H131.864ZM138.597 33.0472V40.0034H137.644V33.0472H138.597ZM140.231 37.9787V37.2253H143.713L143.58 37.4479V37.341C143.582 37.1101 143.529 36.882 143.424 36.676C143.319 36.4715 143.158 36.3015 142.959 36.1863C142.723 36.0557 142.456 35.9917 142.187 36.0013C141.903 35.995 141.623 36.0633 141.374 36.1993C141.142 36.3298 140.953 36.5246 140.83 36.7602C140.695 37.0297 140.628 37.3286 140.636 37.6301C140.628 37.9375 140.692 38.2425 140.824 38.5205C140.941 38.761 141.129 38.9603 141.362 39.0924C141.62 39.2316 141.911 39.3006 142.204 39.2924C142.404 39.296 142.604 39.2729 142.798 39.2239C142.945 39.1866 143.084 39.124 143.209 39.039C143.307 38.9724 143.391 38.8869 143.456 38.7876C143.509 38.7066 143.543 38.6145 143.554 38.5184H144.514C144.493 38.7205 144.429 38.9157 144.325 39.0904C144.207 39.2893 144.051 39.4632 143.866 39.602C143.649 39.765 143.405 39.8886 143.145 39.9671C142.828 40.0628 142.498 40.109 142.167 40.1041C141.716 40.1141 141.269 40.0067 140.872 39.7924C140.507 39.5909 140.206 39.2909 140.003 38.9267C139.79 38.5375 139.683 38.0995 139.691 37.6561C139.682 37.2086 139.791 36.7664 140.007 36.3746C140.214 36.0113 140.517 35.7131 140.885 35.5136C141.28 35.3021 141.723 35.1955 142.172 35.2041C142.618 35.1927 143.06 35.3003 143.452 35.5157C143.808 35.7156 144.1 36.0131 144.293 36.3732C144.494 36.762 144.595 37.195 144.587 37.6328C144.587 37.689 144.585 37.7543 144.582 37.8287C144.581 37.8794 144.577 37.93 144.569 37.9801L140.231 37.9787ZM148.386 34.2404L148.823 33.7328V36.6171L148.591 36.3102H151.08V37.1116H148.593L148.825 36.8047V39.7095L148.389 39.202H151.574V40.0034H147.852V33.439H151.574V34.2404H148.386ZM156.177 40.0034V37.2486C156.181 37.0397 156.145 36.8321 156.07 36.6369C156.001 36.465 155.878 36.3206 155.718 36.226C155.518 36.1175 155.292 36.0659 155.064 36.0767C154.834 36.0738 154.608 36.1355 154.412 36.2547C154.218 36.3726 154.058 36.5391 153.948 36.7376C153.832 36.9494 153.773 37.1878 153.777 37.4294L153.366 37.2239C153.362 36.8629 153.456 36.5075 153.64 36.1965C153.816 35.897 154.067 35.6479 154.368 35.4732C154.671 35.2955 155.016 35.2032 155.368 35.2061C155.7 35.1966 156.03 35.2708 156.327 35.4219C156.588 35.5612 156.8 35.7761 156.937 36.0383C157.085 36.3327 157.157 36.659 157.149 36.9883V40.0034H156.177ZM152.808 40.0034V35.2773H153.774V40.0034H152.808ZM158.701 37.978V37.2246H162.183L162.05 37.4472V37.3404C162.052 37.1094 161.999 36.8813 161.894 36.6753C161.789 36.4708 161.628 36.3009 161.429 36.1856C161.193 36.055 160.926 35.9911 160.657 36.0006C160.373 35.9943 160.093 36.0626 159.844 36.1986C159.612 36.3291 159.423 36.5239 159.3 36.7595C159.165 37.029 159.098 37.3279 159.106 37.6294C159.098 37.9368 159.162 38.2418 159.294 38.5198C159.411 38.7603 159.599 38.9597 159.832 39.0917C160.09 39.231 160.381 39.2999 160.674 39.2917C160.874 39.2953 161.074 39.2723 161.268 39.2232C161.415 39.1859 161.554 39.1233 161.679 39.0383C161.777 38.9717 161.861 38.8862 161.926 38.7869C161.979 38.706 162.013 38.6138 162.024 38.5178H162.984C162.963 38.7199 162.899 38.915 162.795 39.0897C162.677 39.2886 162.521 39.4625 162.336 39.6013C162.119 39.7643 161.875 39.8879 161.615 39.9664C161.298 40.0621 160.968 40.1083 160.637 40.1034C160.186 40.1134 159.739 40.006 159.342 39.7917C158.977 39.5902 158.676 39.2902 158.473 38.926C158.26 38.5368 158.153 38.0989 158.161 37.6554C158.152 37.2079 158.261 36.7657 158.477 36.3739C158.684 36.0107 158.987 35.7124 159.355 35.513C159.75 35.3014 160.193 35.1948 160.642 35.2034C161.088 35.192 161.53 35.2996 161.922 35.515C162.28 35.7144 162.573 36.0122 162.767 36.3732C162.969 36.762 163.07 37.195 163.061 37.6328C163.061 37.689 163.06 37.7543 163.057 37.8287C163.056 37.8794 163.052 37.93 163.043 37.9801L158.701 37.978ZM164.134 40.0034V35.2773H165.101V36.7842L164.842 36.6684C164.862 36.4779 164.912 36.2917 164.989 36.1164C165.065 35.9433 165.17 35.7844 165.299 35.6465C165.434 35.5046 165.597 35.393 165.778 35.3191C165.988 35.2354 166.212 35.1947 166.438 35.1993C166.593 35.1956 166.748 35.2106 166.899 35.2438C166.973 35.2577 167.046 35.2807 167.115 35.3123L166.909 36.2205C166.852 36.1872 166.792 36.1603 166.729 36.1404C166.607 36.1034 166.48 36.087 166.353 36.0917C166.143 36.0841 165.935 36.1283 165.747 36.2205C165.593 36.301 165.461 36.4187 165.364 36.563C165.268 36.7045 165.198 36.862 165.158 37.028C165.118 37.1936 165.098 37.3632 165.098 37.5335V40.0034H164.134ZM170.88 39.6253C171.121 39.6432 171.357 39.6935 171.584 39.7746C171.771 39.8391 171.935 39.9547 172.058 40.1082C172.18 40.2769 172.24 40.4816 172.23 40.689C172.233 40.9507 172.135 41.2035 171.956 41.3945C171.73 41.6201 171.448 41.7814 171.139 41.8616C170.7 41.9829 170.245 42.0392 169.789 42.0287C169.185 42.0626 168.581 41.9481 168.03 41.6952C167.853 41.6176 167.702 41.4908 167.594 41.3298C167.487 41.1688 167.428 40.9804 167.425 40.7869C167.423 40.6842 167.437 40.5817 167.465 40.4828C167.487 40.4044 167.52 40.3294 167.563 40.2602L168.463 40.3938C168.436 40.4348 168.416 40.479 168.4 40.5253C168.378 40.5936 168.368 40.6651 168.37 40.7369C168.37 40.9474 168.499 41.0972 168.757 41.1863C169.105 41.2875 169.467 41.3325 169.83 41.3198C170.11 41.3248 170.389 41.3019 170.665 41.2513C170.843 41.2232 171.013 41.1556 171.161 41.0534C171.211 41.0196 171.252 40.9745 171.28 40.9219C171.309 40.8692 171.325 40.8105 171.326 40.7506C171.336 40.6765 171.318 40.6012 171.276 40.5392C171.234 40.4773 171.171 40.4328 171.098 40.4143C170.919 40.3651 170.736 40.3339 170.55 40.3212L168.757 40.1767C168.48 40.1629 168.213 40.0652 167.993 39.8965C167.9 39.8258 167.825 39.7342 167.773 39.629C167.722 39.5238 167.696 39.4081 167.697 39.291C167.697 39.1423 167.737 38.9961 167.813 38.8684C167.885 38.7448 167.975 38.6336 168.082 38.539C168.158 38.4661 168.249 38.4101 168.348 38.3746L168.98 38.6773C168.887 38.6995 168.801 38.7469 168.733 38.8143C168.688 38.848 168.652 38.8914 168.627 38.9411C168.602 38.9909 168.589 39.0456 168.588 39.1013C168.588 39.15 168.599 39.1981 168.621 39.2415C168.643 39.2849 168.675 39.3224 168.715 39.3506C168.867 39.4353 169.038 39.4797 169.212 39.4794L170.88 39.6253ZM171.473 35.2773H172.35L171.989 37.1267C171.929 37.4571 171.808 37.7733 171.631 38.0589C171.458 38.3355 171.215 38.5618 170.927 38.715C170.586 38.8858 170.207 38.9684 169.825 38.9554C169.419 38.9661 169.016 38.8855 168.645 38.7198C168.334 38.5787 168.07 38.3509 167.886 38.0636C167.707 37.7761 167.615 37.4432 167.621 37.1047C167.615 36.7586 167.71 36.4184 167.895 36.1253C168.079 35.8351 168.34 35.6011 168.648 35.4486C168.993 35.2804 169.372 35.1966 169.755 35.2041C170.075 35.1982 170.393 35.2588 170.688 35.3821C170.935 35.4835 171.156 35.6386 171.335 35.8363C171.484 35.9936 171.576 36.1953 171.598 36.4102L171.324 36.441L171.473 35.2773ZM169.82 38.1657C170.05 38.1713 170.277 38.1278 170.488 38.0383C170.666 37.9616 170.817 37.8329 170.92 37.6691C171.025 37.4924 171.078 37.2896 171.072 37.0842C171.077 36.8801 171.025 36.6787 170.92 36.5034C170.816 36.339 170.666 36.2089 170.488 36.1294C170.28 36.0373 170.053 35.9924 169.825 35.9979C169.6 35.9937 169.377 36.0406 169.173 36.1349C168.992 36.2182 168.839 36.3501 168.729 36.5157C168.619 36.6899 168.564 36.8927 168.569 37.0986C168.563 37.3012 168.616 37.5012 168.72 37.6746C168.825 37.8364 168.975 37.9635 169.152 38.0397C169.364 38.1286 169.592 38.1713 169.821 38.165L169.82 38.1657ZM173.489 42.0157C173.373 42.0164 173.256 42.0098 173.14 41.9958C173.074 41.991 173.009 41.9784 172.946 41.9582V41.1678C173.008 41.1913 173.074 41.2063 173.14 41.2123C173.234 41.2244 173.328 41.2303 173.423 41.2301C173.58 41.2344 173.736 41.1976 173.875 41.1232C174.003 41.0503 174.113 40.9491 174.196 40.8273C174.287 40.695 174.358 40.5504 174.408 40.3979L174.528 40.0417L172.898 35.2773H173.905L175.12 39.2828H174.996L176.176 35.2773H177.169L175.476 40.3506C175.381 40.6482 175.253 40.9341 175.093 41.2027C174.945 41.4494 174.737 41.6539 174.487 41.7965C174.179 41.9549 173.836 42.0302 173.49 42.015L173.489 42.0157Z" fill="#909090"/>
<path d="M65.5586 12.5253L67.4898 10.5472V17.6541L66.5304 16.4794H72.9721V19.7157H66.5304L67.4898 18.5513V25.7103L65.5586 23.7329H74.2981V26.9692H63.1807V9.28902H74.2981V12.5253H65.5586ZM85.931 26.9692V20.3253C85.9341 19.8708 85.8797 19.4176 85.7692 18.9767C85.6752 18.5793 85.4568 18.2222 85.1456 17.9575C84.74 17.6678 84.2454 17.5298 83.7483 17.5678C83.2718 17.5518 82.8008 17.6746 82.3928 17.9212C82.0206 18.1619 81.7316 18.5113 81.565 18.9219C81.3719 19.4058 81.2786 19.9237 81.2909 20.4445L80.3061 19.5972C80.2808 18.5649 80.5268 17.5439 81.0195 16.6363C81.473 15.8194 82.1431 15.1432 82.9561 14.6822C83.7955 14.2124 84.7443 13.9728 85.7062 13.9876C86.6124 13.9466 87.5107 14.1716 88.2904 14.6349C88.9509 15.0673 89.4587 15.6962 89.7419 16.4329C90.0639 17.2783 90.2206 18.1777 90.2038 19.0822V26.9692H85.931ZM77.0222 26.9692V14.2397H81.2915V26.9692H77.0222ZM94.4217 21.8267V19.1555H102.396L102.037 19.7787V19.3952C102.033 19.0208 101.939 18.6527 101.763 18.3226C101.562 17.9481 101.258 17.639 100.887 17.4322C100.404 17.1767 99.8618 17.0547 99.3161 17.0787C98.7479 17.0606 98.1856 17.1995 97.6913 17.4801C97.2403 17.7561 96.8878 18.1671 96.6839 18.6548C96.4413 19.2455 96.3246 19.8802 96.3412 20.5185C96.3243 21.1836 96.4362 21.8458 96.6709 22.4685C96.8671 22.9778 97.2226 23.4102 97.6844 23.7013C98.2166 24.0045 98.8233 24.1519 99.4353 24.1267C99.816 24.1325 100.196 24.0962 100.569 24.0185C100.837 23.9642 101.096 23.8693 101.336 23.737C101.509 23.6412 101.66 23.5106 101.78 23.3534C101.871 23.2319 101.935 23.0915 101.965 22.9424H106.187C106.131 23.5154 105.933 24.0653 105.611 24.5424C105.243 25.0905 104.773 25.5626 104.226 25.9329C103.573 26.3742 102.852 26.704 102.091 26.9089C101.167 27.1604 100.212 27.2817 99.2544 27.2692C97.9448 27.2997 96.6478 27.0086 95.4771 26.4212C94.442 25.892 93.5789 25.0793 92.9888 24.0781C92.3879 23.0283 92.0833 21.8352 92.1075 20.626C92.08 19.4045 92.3914 18.1992 93.0073 17.1438C93.608 16.1461 94.479 15.3387 95.5196 14.815C96.6793 14.2404 97.9609 13.9547 99.2551 13.9822C100.569 13.948 101.87 14.2383 103.045 14.8274C104.08 15.363 104.935 16.1903 105.504 17.2068C106.1 18.3142 106.398 19.5578 106.367 20.815C106.367 21.0306 106.363 21.2265 106.355 21.4027C106.35 21.543 106.338 21.6829 106.319 21.8219L94.4217 21.8267ZM108.393 26.9692V14.2397H112.674V18.7945L111.871 18.2192C111.972 17.6217 112.149 17.0396 112.398 16.487C112.623 15.986 112.938 15.5308 113.328 15.1445C113.709 14.772 114.161 14.4806 114.658 14.2876C115.208 14.0805 115.792 13.979 116.379 13.9883C116.78 13.9753 117.18 14.0103 117.572 14.0924C117.751 14.1317 117.926 14.1879 118.094 14.2602L117.458 18.0363C117.303 17.9632 117.143 17.9012 116.979 17.8507C116.68 17.7594 116.368 17.7168 116.056 17.7246C115.506 17.7084 114.96 17.8126 114.455 18.0301C114.045 18.2139 113.686 18.4963 113.412 18.852C113.152 19.1959 112.961 19.5866 112.849 20.0027C112.734 20.4165 112.675 20.8439 112.674 21.2733V26.9692H108.393ZM128.804 25.2192C129.534 25.2881 130.253 25.4452 130.945 25.687C131.508 25.8754 132.005 26.223 132.375 26.6876C132.739 27.2119 132.918 27.8422 132.884 28.4794C132.893 28.8828 132.823 29.2839 132.677 29.66C132.53 30.0361 132.312 30.3797 132.033 30.6712C131.351 31.3353 130.504 31.805 129.58 32.0315C128.326 32.3626 127.033 32.518 125.736 32.4931C123.941 32.5803 122.149 32.2521 120.501 31.5342C119.25 30.895 118.624 30.0438 118.624 28.9808C118.622 28.7195 118.656 28.4592 118.726 28.2075C118.784 27.9949 118.871 27.7912 118.984 27.602L122.834 28.1534C122.79 28.2178 122.755 28.2884 122.732 28.363C122.692 28.4848 122.674 28.6124 122.678 28.7404C122.678 29.092 122.981 29.3616 123.589 29.5493C124.319 29.7531 125.074 29.848 125.831 29.8308C126.376 29.8376 126.92 29.7935 127.456 29.6993C127.835 29.6411 128.199 29.5109 128.529 29.3157C128.638 29.261 128.73 29.1792 128.797 29.0784C128.864 28.9776 128.904 28.8612 128.913 28.7404C128.917 28.5981 128.872 28.4587 128.786 28.3453C128.7 28.2319 128.578 28.1514 128.44 28.1171C128.092 27.9986 127.732 27.9222 127.366 27.8897L122.544 27.3527C121.732 27.2834 120.95 27.0158 120.265 26.5733C119.974 26.3833 119.737 26.1212 119.577 25.8125C119.418 25.5038 119.341 25.1589 119.354 24.8116C119.35 24.3574 119.491 23.9137 119.756 23.5445C120.006 23.183 120.314 22.8651 120.667 22.6034C120.921 22.4017 121.207 22.2436 121.513 22.1356L123.503 23.1664C123.331 23.2088 123.173 23.2933 123.042 23.4123C122.963 23.4694 122.899 23.5441 122.854 23.6305C122.809 23.7168 122.785 23.8124 122.784 23.9096C122.79 24.018 122.824 24.1231 122.883 24.2144C122.942 24.3058 123.023 24.3803 123.12 24.4308C123.496 24.6223 123.909 24.7307 124.331 24.7486L128.804 25.2192ZM129.895 14.2397H133.637L132.126 19.0924C131.863 19.9682 131.465 20.7975 130.945 21.55C130.439 22.2665 129.761 22.8437 128.972 23.2281C127.994 23.6694 126.927 23.8788 125.854 23.8397C124.676 23.8656 123.504 23.6683 122.4 23.2582C121.503 22.9292 120.718 22.3511 120.139 21.5918C119.597 20.8367 119.317 19.9254 119.341 18.9966C119.32 18.051 119.604 17.1239 120.152 16.3527C120.718 15.5845 121.48 14.9823 122.358 14.6089C123.348 14.1816 124.417 13.9692 125.494 13.9856C126.291 13.9782 127.083 14.112 127.832 14.3808C128.487 14.6045 129.085 14.9688 129.583 15.4479C129.794 15.643 129.963 15.8783 130.08 16.1398C130.198 16.4014 130.262 16.6838 130.269 16.9705L129.621 17.1986L129.895 14.2397ZM125.83 20.8048C126.236 20.8125 126.64 20.7392 127.018 20.589C127.343 20.4595 127.625 20.2414 127.833 19.9596C128.04 19.6629 128.145 19.3077 128.133 18.9466C128.144 18.5895 128.039 18.2385 127.834 17.9459C127.626 17.664 127.344 17.446 127.018 17.3164C126.64 17.168 126.236 17.0965 125.83 17.1061C125.428 17.1006 125.029 17.1739 124.655 17.3219C124.323 17.4509 124.034 17.6713 123.821 17.9575C123.612 18.2553 123.505 18.6129 123.516 18.9767C123.505 19.3347 123.613 19.6862 123.821 19.9774C124.033 20.259 124.32 20.475 124.649 20.6007C125.026 20.7438 125.427 20.8131 125.83 20.8048ZM134.876 26.9692V14.2397H139.11V26.9692H134.876ZM136.987 12.4534C136.386 12.4654 135.797 12.2894 135.301 11.95C135.068 11.7943 134.879 11.5813 134.752 11.3314C134.625 11.0816 134.564 10.8033 134.576 10.5233C134.563 10.2423 134.623 9.96269 134.75 9.71173C134.877 9.46078 135.067 9.24697 135.301 9.09107C135.798 8.75548 136.387 8.58178 136.987 8.59381C137.588 8.58014 138.179 8.75393 138.677 9.09107C138.91 9.24798 139.099 9.46217 139.225 9.713C139.351 9.96384 139.41 10.2429 139.397 10.5233C139.41 10.8036 139.351 11.0827 139.225 11.3335C139.099 11.5844 138.91 11.7985 138.677 11.9555C138.178 12.2935 137.586 12.4676 136.983 12.4534H136.987ZM146.949 27.2692C146.204 27.2708 145.461 27.1823 144.737 27.0055C144.051 26.8424 143.394 26.5734 142.791 26.2082C142.233 25.8731 141.757 25.4163 141.4 24.8719C141.046 24.3136 140.864 23.6631 140.878 23.002V22.8342H145.127C145.127 22.8584 145.127 22.8824 145.127 22.9061C145.127 22.9299 145.127 22.9539 145.127 22.9781C145.118 23.1576 145.162 23.3358 145.255 23.4897C145.348 23.6436 145.485 23.766 145.649 23.8411C146.096 24.0367 146.582 24.127 147.07 24.1048C147.35 24.1039 147.629 24.0738 147.903 24.015C148.161 23.9661 148.406 23.8642 148.623 23.7157C148.713 23.6587 148.787 23.5799 148.838 23.4867C148.89 23.3934 148.917 23.2887 148.917 23.1822C148.917 22.8388 148.711 22.595 148.3 22.4507C147.619 22.2458 146.924 22.0935 146.22 21.9952C145.63 21.9004 145.047 21.7682 144.475 21.5993C143.888 21.4301 143.323 21.1926 142.791 20.8918C142.292 20.615 141.862 20.23 141.531 19.765C141.2 19.2696 141.032 18.6827 141.052 18.087C141.025 17.2571 141.316 16.4483 141.867 15.8267C142.46 15.1929 143.205 14.7213 144.032 14.4568C144.988 14.136 145.991 13.9778 147 13.989C147.981 13.9815 148.955 14.1564 149.872 14.5048C150.706 14.8095 151.452 15.3161 152.042 15.9794C152.594 16.6082 152.892 17.4204 152.876 18.2568V18.4007H148.678C148.678 18.3769 148.678 18.3541 148.678 18.3322C148.678 18.3103 148.678 18.2902 148.678 18.2719C148.683 18.1502 148.663 18.0288 148.619 17.9154C148.574 17.802 148.507 17.699 148.421 17.613C148.238 17.4387 148.016 17.3111 147.773 17.2411C147.515 17.1614 147.246 17.121 146.975 17.1212C146.722 17.1236 146.47 17.1497 146.222 17.1993C145.975 17.2416 145.739 17.3311 145.526 17.463C145.433 17.5202 145.358 17.6013 145.307 17.6976C145.257 17.794 145.233 17.9022 145.238 18.0109C145.243 18.1206 145.276 18.2272 145.335 18.3198C145.394 18.4124 145.476 18.4878 145.574 18.5383C145.86 18.7065 146.172 18.826 146.497 18.8918C146.889 18.9831 147.336 19.0689 147.84 19.1493C148.394 19.2328 148.943 19.3448 149.485 19.4849C150.08 19.6352 150.655 19.8545 151.198 20.1383C151.725 20.408 152.183 20.7957 152.535 21.2712C152.9 21.798 153.083 22.4291 153.057 23.0692C153.078 23.7584 152.895 24.4385 152.529 25.0233C152.169 25.5667 151.681 26.0136 151.108 26.3246C150.489 26.6615 149.823 26.903 149.132 27.0411C148.414 27.1928 147.683 27.2693 146.949 27.2692ZM161.58 27.2568C160.292 27.2846 159.017 26.9943 157.867 26.4116C156.831 25.8773 155.963 25.0662 155.361 24.0685C154.745 23.0238 154.431 21.8287 154.455 20.6164C154.43 19.402 154.743 18.2045 155.361 17.1582C155.964 16.1647 156.832 15.3585 157.867 14.8294C159.017 14.2509 160.292 13.9629 161.579 13.9904C162.866 13.9629 164.14 14.2509 165.29 14.8294C166.326 15.3585 167.194 16.1647 167.797 17.1582C168.415 18.2045 168.728 19.402 168.703 20.6164C168.727 21.8287 168.413 23.0238 167.797 24.0685C167.195 25.0662 166.327 25.8773 165.29 26.4116C164.142 26.9939 162.868 27.2842 161.58 27.2568ZM161.58 23.9602C162.107 23.9742 162.626 23.8277 163.067 23.5404C163.492 23.2501 163.825 22.8447 164.027 22.3719C164.262 21.8168 164.376 21.2183 164.363 20.6157C164.377 20.0111 164.263 19.4103 164.027 18.8534C163.826 18.3849 163.492 17.9851 163.067 17.7027C162.623 17.4229 162.105 17.2811 161.58 17.2952C161.057 17.2827 160.542 17.4245 160.099 17.7027C159.672 17.9835 159.336 18.3836 159.134 18.8534C158.898 19.4103 158.783 20.0111 158.798 20.6157C158.785 21.2183 158.899 21.8168 159.134 22.3719C159.337 22.846 159.672 23.2516 160.099 23.5404C160.539 23.8263 161.056 23.9726 161.58 23.9602Z" fill="black"/>
<path d="M31.8849 47.6232C27.3991 47.6295 23.0074 46.3386 19.2392 43.9061L27.2852 37.7636L38.1402 41.7876L32.6702 47.6095C32.4091 47.6191 32.1439 47.6232 31.8849 47.6232ZM35.0208 47.4177L39.7486 42.3814L44.2805 44.0629C43.2182 44.7295 42.104 45.3095 40.9486 45.7972C39.0539 46.5976 37.0608 47.1419 35.0222 47.4157L35.0208 47.4177ZM18.5478 43.4451C16.3921 41.9409 14.5072 40.0824 12.9729 37.9486L18.4916 34.5047L26.4135 37.4417L18.5484 43.4424L18.5478 43.4451ZM45.8683 42.9732L40.9225 41.1362L49.9375 31.5403L53.6909 32.5616C53.5792 32.8581 53.462 33.1499 53.3434 33.4294C52.1745 36.1918 50.4797 38.7008 48.3531 40.8171C47.5769 41.5918 46.7476 42.3113 45.871 42.9705L45.8683 42.9732ZM39.3141 40.5438L28.7696 36.6328L39.2545 28.6321L48.2133 31.0705L39.3148 40.541L39.3141 40.5438ZM5.97266 40.4472L8.61171 37.3753L9.358 38.3403L5.97266 40.4465V40.4472ZM27.8951 36.3088L20.1808 33.4492L31.3511 26.4821L38.2951 28.3718L27.8951 36.3088ZM53.954 31.8171L50.5461 30.889L55.1135 26.026C54.9772 27.9975 54.5877 29.9434 53.9547 31.8157L53.954 31.8171ZM48.8219 30.4198L40.0419 28.0301L47.6117 22.2534L55.154 23.5081V23.5609C55.154 23.6225 55.1558 23.6842 55.1595 23.7458L55.1225 23.7116L48.8178 30.4198H48.8219ZM39.0839 27.7698L32.2632 25.9129L40.1269 21.0116L46.5419 22.076L39.0846 27.7698H39.0839ZM55.1094 22.7013L48.471 21.5972L54.0733 17.3212C54.6289 19.0676 54.9763 20.8735 55.1081 22.7013H55.1094ZM47.404 21.4225L41.1377 20.3801L52.3888 13.3595C52.9402 14.3807 53.4139 15.4419 53.806 16.5342L47.4047 21.4225H47.404ZM53.4366 10.8287V10.5136H53.9575L53.4373 10.828L53.4366 10.8287Z" fill="#52B704"/>
<path d="M5.97266 40.4472L10.706 34.9356L11.0212 34.7185C9.53361 31.7202 8.71054 28.4365 8.60813 25.0914C8.50571 21.7463 9.12636 18.4185 10.4277 15.3349C10.7638 14.5421 11.1436 13.7686 11.5653 13.0178H21.9132V3.37669C22.21 3.23628 22.5149 3.10272 22.8199 2.97121C25.9563 1.65297 29.3428 1.03491 32.7429 1.16019C36.143 1.28548 39.4748 2.15108 42.5056 3.69655C45.5849 5.28158 48.2759 7.52685 50.3864 10.2719H54.1199L53.7395 10.5109H53.9554L38.3993 19.9205H38.3938V19.9246L38.1094 20.0966L10.29 37.7623L10.3133 37.7993L6.1522 40.4116L6.2968 40.2459L5.97266 40.4472Z" fill="#FF741B"/>
<path d="M19.8584 29.452L36.2266 18.1609L30.5332 16.0438L38.3613 6.16435L21.2817 16.75L26.9751 19.5726" fill="white"/>
<path d="M2.04102 7.52727H8.20864V13.6985H2.04102V7.52727Z" fill="#FF741B"/>
<path d="M-0.000976562 -6.10352e-05H4.09707V4.10953H-0.000976562V-6.10352e-05Z" fill="#FF741B"/>
<path d="M10.9561 2.04791H20.5364V11.6507H10.9561V2.04791Z" fill="#FF741B"/>
</g>
</g>
<defs>
<clipPath id="clip0_31_2025">
<rect width="184.343" height="50" fill="white"/>
</clipPath>
</defs>
</svg>
