<svg width="16" height="15" viewBox="0 0 16 15" fill="none" xmlns="http://www.w3.org/2000/svg">
<path d="M2.75 0.75C3.05078 0.75 3.32422 0.996094 3.37891 1.29688L3.43359 1.625H14.918C15.4922 1.625 15.9297 2.19922 15.7656 2.74609L14.2891 7.99609C14.1797 8.37891 13.8516 8.625 13.4414 8.625H4.77344L5.01953 9.9375H13.4688C13.8242 9.9375 14.125 10.2383 14.125 10.5938C14.125 10.9766 13.8242 11.25 13.4688 11.25H4.47266C4.17188 11.25 3.89844 11.0312 3.84375 10.7305L2.20312 2.0625H0.78125C0.398438 2.0625 0.125 1.78906 0.125 1.40625C0.125 1.05078 0.398438 0.75 0.78125 0.75H2.75ZM3.625 13.4375C3.625 12.7266 4.19922 12.125 4.9375 12.125C5.64844 12.125 6.25 12.7266 6.25 13.4375C6.25 14.1758 5.64844 14.75 4.9375 14.75C4.19922 14.75 3.625 14.1758 3.625 13.4375ZM14.125 13.4375C14.125 14.1758 13.5234 14.75 12.8125 14.75C12.0742 14.75 11.5 14.1758 11.5 13.4375C11.5 12.7266 12.0742 12.125 12.8125 12.125C13.5234 12.125 14.125 12.7266 14.125 13.4375Z" fill="#FF741B"/>
</svg>
